<svg width="40" height="40" viewBox="0 0 40 40" fill="none" xmlns="http://www.w3.org/2000/svg">
<rect width="40" height="40" rx="20" fill="#263640"/>
<path d="M20 14.75C20.4973 14.75 20.9742 14.9475 21.3258 15.2992C21.6775 15.6508 21.875 16.1277 21.875 16.625V17H18.125V16.625C18.125 16.1277 18.3225 15.6508 18.6742 15.2992C19.0258 14.9475 19.5027 14.75 20 14.75V14.75ZM22.625 17V16.625C22.625 15.9288 22.3484 15.2611 21.8562 14.7688C21.3639 14.2766 20.6962 14 20 14C19.3038 14 18.6361 14.2766 18.1438 14.7688C17.6516 15.2611 17.375 15.9288 17.375 16.625V17H14.75V24.5C14.75 24.8978 14.908 25.2794 15.1893 25.5607C15.4706 25.842 15.8522 26 16.25 26H23.75C24.1478 26 24.5294 25.842 24.8107 25.5607C25.092 25.2794 25.25 24.8978 25.25 24.5V17H22.625Z" fill="white"/>
</svg>
