<svg width="10" height="16" viewBox="0 0 10 16" fill="none" xmlns="http://www.w3.org/2000/svg">
<path d="M4.576 13.184L5.552 13.2V15.792H4.576V13.184ZM4.688 12.976V3.696L5.44 3.568V13.008L4.688 12.976ZM4.576 0.959999H5.552V3.424L4.576 3.552V0.959999ZM8.128 5.312C8.032 5.19467 7.87733 5.072 7.664 4.944C7.46133 4.80533 7.22133 4.67733 6.944 4.56C6.67733 4.44267 6.384 4.34667 6.064 4.272C5.744 4.19733 5.41333 4.16 5.072 4.16C4.32533 4.16 3.77067 4.29867 3.408 4.576C3.04533 4.85333 2.864 5.23733 2.864 5.728C2.864 6.09067 2.96533 6.37867 3.168 6.592C3.37067 6.79467 3.68 6.96533 4.096 7.104C4.512 7.24267 5.03467 7.392 5.664 7.552C6.432 7.73333 7.09867 7.952 7.664 8.208C8.22933 8.45333 8.66133 8.784 8.96 9.2C9.25867 9.616 9.408 10.1653 9.408 10.848C9.408 11.424 9.30133 11.92 9.088 12.336C8.87467 12.752 8.576 13.0933 8.192 13.36C7.808 13.616 7.36533 13.808 6.864 13.936C6.36267 14.0533 5.824 14.112 5.248 14.112C4.672 14.112 4.10667 14.0533 3.552 13.936C2.99733 13.8187 2.464 13.648 1.952 13.424C1.45067 13.1893 0.981333 12.9067 0.544 12.576L1.376 11.04C1.51467 11.1787 1.712 11.3333 1.968 11.504C2.224 11.664 2.528 11.8187 2.88 11.968C3.232 12.1173 3.61067 12.2453 4.016 12.352C4.432 12.448 4.85333 12.496 5.28 12.496C5.984 12.496 6.528 12.3733 6.912 12.128C7.296 11.872 7.488 11.5093 7.488 11.04C7.488 10.656 7.36 10.352 7.104 10.128C6.85867 9.89333 6.50133 9.696 6.032 9.536C5.57333 9.376 5.01867 9.216 4.368 9.056C3.62133 8.85333 2.99733 8.63467 2.496 8.4C1.99467 8.15467 1.616 7.84533 1.36 7.472C1.11467 7.088 0.992 6.60267 0.992 6.016C0.992 5.26933 1.17333 4.64 1.536 4.128C1.89867 3.60533 2.38933 3.216 3.008 2.96C3.63733 2.69333 4.336 2.56 5.104 2.56C5.62667 2.56 6.11733 2.61867 6.576 2.736C7.03467 2.84267 7.46133 2.992 7.856 3.184C8.26133 3.376 8.624 3.59467 8.944 3.84L8.128 5.312Z" fill="#222222"/>
</svg>
