<svg width="12" height="12" viewBox="0 0 12 12" fill="none" xmlns="http://www.w3.org/2000/svg">
<path d="M6 0.75C6.49728 0.75 6.97419 0.947544 7.32583 1.29917C7.67746 1.65081 7.875 2.12772 7.875 2.625V3H4.125V2.625C4.125 2.12772 4.32254 1.65081 4.67417 1.29917C5.02581 0.947544 5.50272 0.75 6 0.75ZM8.625 3V2.625C8.625 1.92881 8.34844 1.26113 7.85616 0.768845C7.36387 0.276562 6.69619 0 6 0C5.30381 0 4.63613 0.276562 4.14384 0.768845C3.65156 1.26113 3.375 1.92881 3.375 2.625V3H0.75V10.5C0.75 10.8978 0.908035 11.2794 1.18934 11.5607C1.47064 11.842 1.85218 12 2.25 12H9.75C10.1478 12 10.5294 11.842 10.8107 11.5607C11.092 11.2794 11.25 10.8978 11.25 10.5V3H8.625Z" fill="white"/>
</svg>
