<svg width="40" height="40" viewBox="0 0 40 40" fill="none" xmlns="http://www.w3.org/2000/svg">
<rect width="40" height="40" rx="20" fill="#263640"/>
<path d="M18.6667 24C19.85 23.9998 20.9992 23.6036 21.9314 22.8747L24.862 25.8053L25.8047 24.8627L22.874 21.932C23.6034 20.9998 23.9998 19.8503 24 18.6667C24 15.726 21.6074 13.3333 18.6667 13.3333C15.726 13.3333 13.3334 15.726 13.3334 18.6667C13.3334 21.6073 15.726 24 18.6667 24ZM18.6667 14.6667C20.8727 14.6667 22.6667 16.4607 22.6667 18.6667C22.6667 20.8727 20.8727 22.6667 18.6667 22.6667C16.4607 22.6667 14.6667 20.8727 14.6667 18.6667C14.6667 16.4607 16.4607 14.6667 18.6667 14.6667Z" fill="white"/>
</svg>
