<svg width="40" height="40" viewBox="0 0 40 40" fill="none" xmlns="http://www.w3.org/2000/svg">
<rect width="40" height="40" rx="20" fill="#263640"/>
<path d="M25.4992 25.2315C25.4704 23.3461 24.8961 21.6317 23.8749 20.3904C22.8597 19.1567 21.4838 18.4773 20.0003 18.4773C18.5168 18.4773 17.141 19.1567 16.1257 20.3904C15.1056 21.6303 14.5316 23.3424 14.5016 25.2255C15.0785 25.521 17.4656 26.6591 20.0003 26.6591C22.7412 26.6591 24.9642 25.5277 25.4992 25.2315Z" fill="white"/>
<path d="M20 17.9659C21.5188 17.9659 22.75 16.7067 22.75 15.1534C22.75 13.6001 21.5188 12.3409 20 12.3409C18.4812 12.3409 17.25 13.6001 17.25 15.1534C17.25 16.7067 18.4812 17.9659 20 17.9659Z" fill="white"/>
</svg>
