<svg width="16" height="18" viewBox="0 0 16 18" fill="none" xmlns="http://www.w3.org/2000/svg">
<path d="M8 1.125C8.74592 1.125 9.46129 1.42132 9.98874 1.94876C10.5162 2.47621 10.8125 3.19158 10.8125 3.9375V4.5H5.1875V3.9375C5.1875 3.19158 5.48382 2.47621 6.01126 1.94876C6.53871 1.42132 7.25408 1.125 8 1.125ZM11.9375 4.5V3.9375C11.9375 2.89321 11.5227 1.89169 10.7842 1.15327C10.0458 0.414843 9.04429 0 8 0C6.95571 0 5.95419 0.414843 5.21577 1.15327C4.47734 1.89169 4.0625 2.89321 4.0625 3.9375V4.5H0.125V15.75C0.125 16.3467 0.362053 16.919 0.78401 17.341C1.20597 17.7629 1.77826 18 2.375 18H13.625C14.2217 18 14.794 17.7629 15.216 17.341C15.6379 16.919 15.875 16.3467 15.875 15.75V4.5H11.9375Z" fill="white"/>
</svg>
