<svg width="18" height="18" viewBox="0 0 18 18" fill="none" xmlns="http://www.w3.org/2000/svg">
<rect width="18" height="18" rx="9" fill="white"/>
<path d="M7.33373 9C7.33373 8.07956 8.07972 7.3332 9.0002 7.3332C9.92068 7.3332 10.6671 8.07956 10.6671 9C10.6671 9.92044 9.92068 10.6668 9.0002 10.6668C8.07972 10.6668 7.33373 9.92044 7.33373 9ZM6.43266 9C6.43266 10.418 7.58214 11.5674 9.0002 11.5674C10.4183 11.5674 11.5677 10.418 11.5677 9C11.5677 7.582 10.4183 6.43256 9.0002 6.43256C7.58214 6.43256 6.43266 7.582 6.43266 9ZM11.0694 6.33076C11.0693 6.44943 11.1045 6.56545 11.1704 6.66414C11.2362 6.76284 11.3299 6.83978 11.4395 6.88524C11.5492 6.93069 11.6698 6.94262 11.7862 6.91952C11.9026 6.89641 12.0096 6.83931 12.0935 6.75543C12.1774 6.67156 12.2346 6.56467 12.2578 6.44829C12.281 6.33191 12.2692 6.21127 12.2238 6.10161C12.1785 5.99196 12.1016 5.89822 12.0029 5.83225C11.9043 5.76628 11.7883 5.73105 11.6696 5.731H11.6694C11.5103 5.73107 11.3578 5.79428 11.2453 5.90673C11.1328 6.01919 11.0695 6.17169 11.0694 6.33076ZM6.98012 13.0699C6.49262 13.0477 6.22765 12.9665 6.05156 12.8979C5.81811 12.807 5.65155 12.6988 5.47642 12.5239C5.30129 12.349 5.19289 12.1826 5.1024 11.9492C5.03376 11.7732 4.95256 11.5081 4.9304 11.0206C4.90616 10.4936 4.90132 10.3353 4.90132 9.00004C4.90132 7.6648 4.90656 7.50692 4.9304 6.97944C4.9526 6.49196 5.0344 6.22744 5.1024 6.05092C5.19329 5.81748 5.30153 5.65092 5.47642 5.4758C5.65131 5.30068 5.81771 5.19228 6.05156 5.1018C6.22757 5.03316 6.49262 4.95196 6.98012 4.9298C7.50718 4.90556 7.66551 4.90072 9.0002 4.90072C10.3349 4.90072 10.4934 4.90596 11.0209 4.9298C11.5084 4.952 11.7729 5.0338 11.9494 5.1018C12.1829 5.19228 12.3495 5.30092 12.5246 5.4758C12.6997 5.65068 12.8077 5.81748 12.8986 6.05092C12.9672 6.22692 13.0484 6.49196 13.0706 6.97944C13.0948 7.50692 13.0997 7.6648 13.0997 9.00004C13.0997 10.3353 13.0948 10.4932 13.0706 11.0206C13.0484 11.5081 12.9668 11.7731 12.8986 11.9492C12.8077 12.1826 12.6995 12.3492 12.5246 12.5239C12.3497 12.6986 12.1829 12.807 11.9494 12.8979C11.7734 12.9665 11.5084 13.0477 11.0209 13.0699C10.4938 13.0941 10.3355 13.099 9.0002 13.099C7.66491 13.099 7.50702 13.0941 6.98012 13.0699ZM6.93872 4.03028C6.40642 4.05452 6.04268 4.13892 5.72503 4.26252C5.39606 4.39016 5.11756 4.5614 4.83927 4.83924C4.56098 5.11708 4.39018 5.396 4.26253 5.72496C4.13893 6.0428 4.05452 6.40632 4.03028 6.9386C4.00564 7.47172 4 7.64216 4 9C4 10.3578 4.00564 10.5283 4.03028 11.0614C4.05452 11.5937 4.13893 11.9572 4.26253 12.275C4.39018 12.6038 4.56102 12.883 4.83927 13.1608C5.11752 13.4385 5.39606 13.6095 5.72503 13.7375C6.04328 13.8611 6.40642 13.9455 6.93872 13.9697C7.47214 13.994 7.64231 14 9.0002 14C10.3581 14 10.5285 13.9944 11.0617 13.9697C11.594 13.9455 11.9575 13.8611 12.2754 13.7375C12.6041 13.6095 12.8828 13.4386 13.1611 13.1608C13.4394 12.8829 13.6099 12.6038 13.7379 12.275C13.8615 11.9572 13.9463 11.5937 13.9701 11.0614C13.9944 10.5279 14 10.3578 14 9C14 7.64216 13.9944 7.47172 13.9701 6.9386C13.9459 6.40628 13.8615 6.0426 13.7379 5.72496C13.6099 5.3962 13.439 5.11752 13.1611 4.83924C12.8833 4.56096 12.6041 4.39016 12.2758 4.26252C11.9575 4.13892 11.594 4.05412 11.0621 4.03028C10.5289 4.00604 10.3585 4 9.0006 4C7.64271 4 7.47214 4.00564 6.93872 4.03028Z" fill="#222222"/>
</svg>
